<?xml version="1.0" encoding="UTF-8"?>
<svg xmlns="http://www.w3.org/2000/svg" version="1.1" viewBox="0 0 793 1122">
  <defs>
    <style>
      .cls-1 {
        fill: #fff;
      }

      .cls-2 {
        fill: #1bb445;
      }

      .cls-3 {
        fill: #f6b82e;
      }

      .cls-4 {
        fill: #17ac38;
      }
    </style>
  </defs>
  <!-- Generator: Adobe Illustrator 28.7.1, SVG Export Plug-In . SVG Version: 1.2.0 Build 142)  -->
  <g>
    <g id="Layer_1">
      <g id="Layer_8">
        <g>
          <path class="cls-1" d="M662.6,415.9c-106.5,67.7-171,65-294.6,18.6-14.6-4.9-30-10.2-46.4-15.7C187.4,374,100.8,322.7,0,378.5l1,185v557.9h791.8V359.7c-5.9-.1-44.2,1.5-130.2,56.2h0Z"/>
          <path class="cls-3" d="M774.2,302.5c-14.4,2.1-37.4,8.8-70.3,28.3-10.3,6.1-21.5,13.4-33.8,22.3-11.8,8.5-24.6,18.5-38.4,30-78.9,66.2-156.4,43.6-240.6,20.2h0c111,48.3,166.7,70.8,253.3,4.4,35.9-27.5,64.6-44.4,87-54.6,37.5-17.2,56.7-15.7,60.8-15.1.3,0,.5,0,.6.1v-35.6h0c-1.2-.3-7.1-1.6-18.5,0h0Z"/>
          <path class="cls-2" d="M0,378.5c100.7-55.7,187.2-3.6,321.3,41.1,25,8.3,47.6,16.2,68.5,23,1.6.5,3.3,1.1,4.9,1.6,98.6,31.8,160.8,40.2,267.3-27.5,85.9-54.6,124.2-56.2,130.1-56.1h.6v-22.5c0,0-.3,0-.6-.1-4-.6-23.3-2.1-60.8,15.1-22.3,10.2-51.1,27-87,54.6-86.6,66.4-142.3,43.9-253.3-4.4-.4-.2-.9-.4-1.3-.6-15.2-6.6-31.4-13.7-48.8-21.1-23.8-10.1-45.8-19.7-66.5-28.6-19-8.1-37.1-15.7-54.5-22.3C147.2,303.2,83.7,291.9,0,315.6v62.8h0Z"/>
        </g>
      </g>
      <g id="Layer_7">
        <g>
          <rect class="cls-2" y="1017.1" width="1" height="103.7"/>
          <path class="cls-1" d="M426.8,1051.2v69.6h.2v-65.8c0-1.3,0-2.6-.2-3.8Z"/>
          <path class="cls-1" d="M426.8,1051.2c.1,1.3.2,2.6.2,3.8v65.8h.4v-103.7h-38.3c10.1,0,19.7,4,26.8,11.1s10,14.3,10.9,23Z"/>
          <path class="cls-4" d="M426.8,1051.2c-.9-8.6-4.7-16.8-10.9-23s-16.7-11.1-26.8-11.1H1v103.7h425.8v-69.6Z"/>
        </g>
      </g>
      <g id="half_circle">
        <path class="cls-1" d="M637.4,1120.7h5.5c17.7-58.5,76.5-103.4,149.4-112.2v-1.6"/>
        <path class="cls-1" d="M792.3,1006.9v113.8h-154.9"/>
        <path class="cls-3" d="M642.9,1120.7h149.4v-112.2c-72.8,8.8-131.7,53.7-149.4,112.2Z"/>
      </g>
    </g>
  </g>
</svg>