<?xml version="1.0" encoding="UTF-8"?>
<svg xmlns="http://www.w3.org/2000/svg" xmlns:xlink="http://www.w3.org/1999/xlink" version="1.1" viewBox="0 0 793 1122">
  <defs>
    <style>
      .cls-1 {
        fill: none;
      }

      .cls-2 {
        isolation: isolate;
      }

      .cls-3 {
        fill: #fff;
      }

      .cls-4 {
        fill: #1bb445;
      }

      .cls-5 {
        fill: #f6b82e;
      }

      .cls-6 {
        clip-path: url(#clippath);
      }

      .cls-7 {
        fill: #17ac38;
      }
    </style>
    <clipPath id="clippath">
      <rect class="cls-1" x="81.2" y="1040.2" width="63.2" height="62"/>
    </clipPath>
  </defs>
  <!-- Generator: Adobe Illustrator 28.7.1, SVG Export Plug-In . SVG Version: 1.2.0 Build 142)  -->
  <g>
    <g id="Layer_1">
      <g id="image">
        <image class="cls-2" width="5993" height="4015" transform="translate(2.6) scale(.1)" xlink:href="Cleaning Services-eng (1)-1.png"/>
      </g>
      <g id="Layer_8">
        <g>
          <path class="cls-3" d="M662.6,415.9c-106.5,67.7-171,65-294.6,18.6-14.6-4.9-30-10.2-46.4-15.7C187.4,374,100.8,322.7,0,378.5l1,185v557.9h791.8V359.7c-5.9-.1-44.2,1.5-130.2,56.2h0Z"/>
          <path class="cls-5" d="M774.2,302.5c-14.4,2.1-37.4,8.8-70.3,28.3-10.3,6.1-21.5,13.4-33.8,22.3-11.8,8.5-24.6,18.5-38.4,30-78.9,66.2-156.4,43.6-240.6,20.2h0c111,48.3,166.7,70.8,253.3,4.4,35.9-27.5,64.6-44.4,87-54.6,37.5-17.2,56.7-15.7,60.8-15.1.3,0,.5,0,.6.1v-35.6h0c-1.2-.3-7.1-1.6-18.5,0h0Z"/>
          <path class="cls-4" d="M0,378.5c100.7-55.7,187.2-3.6,321.3,41.1,25,8.3,47.6,16.2,68.5,23,1.6.5,3.3,1.1,4.9,1.6,98.6,31.8,160.8,40.2,267.3-27.5,85.9-54.6,124.2-56.2,130.1-56.1h.6v-22.5c0,0-.3,0-.6-.1-4-.6-23.3-2.1-60.8,15.1-22.3,10.2-51.1,27-87,54.6-86.6,66.4-142.3,43.9-253.3-4.4-.4-.2-.9-.4-1.3-.6-15.2-6.6-31.4-13.7-48.8-21.1-23.8-10.1-45.8-19.7-66.5-28.6-19-8.1-37.1-15.7-54.5-22.3C147.2,303.2,83.7,291.9,0,315.6v62.8h0Z"/>
        </g>
      </g>
      <g id="Layer_7">
        <g>
          <rect class="cls-4" y="1017.1" width="1" height="103.7"/>
          <path class="cls-3" d="M426.8,1051.2v69.6h.2v-65.8c0-1.3,0-2.6-.2-3.8Z"/>
          <path class="cls-3" d="M426.8,1051.2c.1,1.3.2,2.6.2,3.8v65.8h.4v-103.7h-38.3c10.1,0,19.7,4,26.8,11.1s10,14.3,10.9,23Z"/>
          <path class="cls-7" d="M426.8,1051.2c-.9-8.6-4.7-16.8-10.9-23s-16.7-11.1-26.8-11.1H1v103.7h425.8v-69.6Z"/>
        </g>
      </g>
      <g id="email">
        <g>
          <path class="cls-3" d="M166,1080.1c-.2.3-.6.3-.9.3s-.5-.1-.7-.3c-.3-.2-.3-.5-.3-.8v-3.3h2v-1.8h-2v-2h-2.3v2h-1.2v1.8h1.2v3.3c0,1,.3,1.7.8,2.2s1.2.7,2.2.7.7,0,1.1,0c.4,0,.7-.2.9-.4h-.2s-.6-1.6-.6-1.6Z"/>
          <path class="cls-3" d="M173.7,1078.1c0,.7-.2,1.2-.5,1.6-.4.3-.3.5-1.4.5s-1.6-.7-1.6-2v-4.2h-2.3v4.6c0,1.2.3,2.1.9,2.7.6.6,1.4.9,2.5.9s1-.1,1.4-.3c.4-.2.8-.5,1.1-.8v1h2.2v-8h-2.3v4Z"/>
          <path class="cls-3" d="M180.1,1075h-.2c0,0,0-1,0-1h-2.2v8.1h2.4v-3.8c0-.8.2-1.3.6-1.7s.9-.6,1.6-.6h.5v-2.2c-.6,0-1.1.1-1.6.3-.4.2-.8.5-1.1.9Z"/>
          <path class="cls-3" d="M190.8,1074.4c-.6-.3-1.3-.5-2-.5h.1c-1,0-1.8.2-2.4.9v-3.9h-2.4v11.2h2.2v-.9c.5.7,1.4,1.1,2.5,1.1s1.4-.2,2-.5c.7-.4,1.2-.9,1.5-1.5.3-.6.5-1.4.5-2.2s-.2-1.6-.5-2.2c-.4-.7-.9-1.2-1.5-1.5ZM189.9,1079.6c-.4.4-.9.6-1.5.6s-1.1-.2-1.5-.6c-.4-.4-.6-.9-.6-1.6s.2-1.2.6-1.6c.4-.4.9-.6,1.5-.6s1.1.2,1.5.6c.4.4.6.9.6,1.6s-.2,1.2-.6,1.6Z"/>
          <path class="cls-3" d="M200.3,1074.4c-.7-.3-1.4-.5-2.3-.5s-1.6,0-2.3.5-1.2.9-1.6,1.5c-.4.6-.6,1.3-.6,2.1s.2,1.6.6,2.2c.4.6.9,1.1,1.6,1.5.7.3,1.4.5,2.3.5s1.6-.2,2.3-.5c.7-.4,1.2-.9,1.6-1.5.4-.7.6-1.4.6-2.2s-.2-1.5-.6-2.1c-.4-.7-.9-1.2-1.6-1.5ZM199.5,1079.6c-.4.4-.9.6-1.5.6s-1.1-.2-1.5-.6-.6-.9-.6-1.6.2-1.2.6-1.6c.4-.4.9-.6,1.5-.6s1.1.2,1.5.6c.4.4.6.9.6,1.6s-.2,1.2-.6,1.6Z"/>
          <path class="cls-3" d="M204.6,1079.3c-.4,0-.7,0-1,.4-.3.2-.4.5-.4,1s0,.8.4,1.1c.2.3.6.4,1,.4s.7,0,1-.4c.3-.3.4-.7.4-1.1s0-.7-.4-1c-.3-.3-.6-.4-1-.4Z"/>
          <path class="cls-3" d="M211.2,1075.8c.8,0,1.4.4,1.8,1.1l1.8-1c-.3-.6-.8-1.2-1.4-1.5-.6-.3-1.4-.5-2.2-.5s-1.6,0-2.3.5c-.7.4-1.2.9-1.6,1.5s-.6,1.3-.6,2.1.2,1.6.6,2.2c.4.6.9,1.1,1.6,1.5.7.3,1.4.5,2.3.5h0c.8,0,1.6-.2,2.2-.6.6-.4,1.1-.9,1.4-1.5l-1.8-1c-.4.7-1.2,1.1-1.8,1.1s-1.1-.2-1.5-.6c-.4-.4-.6-1-.6-1.6s.2-1.2.6-1.6c.4-.4.7-.6,1.5-.6Z"/>
          <rect class="cls-3" x="215.9" y="1070.9" width="2.4" height="11.2"/>
          <path class="cls-3" d="M227.4,1075.8c-.3-.7-.8-1.2-1.5-1.5-.6-.3-1.3-.5-2.1-.5s-1.5,0-2.2.5c-.6.4-1.1.9-1.5,1.5-.4.6-.6,1.3-.6,2.1s.2,1.6.6,2.2c.4.6.9,1.1,1.6,1.5.7.3,1,.5,2.4.5s2.5-.4,3.3-1.3l-1.2-1.4c-.3.3-.6.5-.9.6-.3.2-.5.2-1.1.2s-1.1-.1-1.5-.4-.7-.7-.8-1.2h6.1v-.6h0c0-.8-.1-1.6-.5-2.2ZM221.8,1077.3c.1-.5.3-.9.7-1.2.3-.3.8-.5,1.3-.5h.1c.5,0,.9.2,1.3.5.3.3.6.7.6,1.2h-4Z"/>
          <path class="cls-3" d="M232.5,1073.9h0c-.6,0-1.3,0-1.9.2-.6,0-1.2.4-1.6.7l.9,1.6c.3-.2.6-.4,1-.5.4-.2.7-.2,1.3-.2s1.1,0,1.4.4c.3.3.5.7.5,1.2h-1.9c-1.2,0-2,.2-2.6.6-.5.5-.8,1.1-.8,1.8s.2.9.4,1.3c.2.4.5.7,1,.9.4.2.4.3,1.6.3s2.1-.4,2.5-1.1v1h2.2v-4.6c0-1.2-.3-2.1-1-2.7-.7-.6-1.7-.9-2.9-.9ZM234.2,1079.5c-.2.3-.4.6-.7.8-.3.3-.7.3-1.1.3h0c-.4-.1-.8-.1-1-.3-.3,0-.4,0-.4-.7s.5-.9,1.5-.9h1.6v.8Z"/>
          <path class="cls-3" d="M243.2,1073.9h-.2c-.5-.1-1,0-1.5.2-.4.2-.8.5-1.1.8v-.9h-2.2v8.1h2.4v-4c0-.7.2-1.2.5-1.6.3-.4.9-.6,1.4-.6s.9.2,1.2.5.4.8.4,1.4v4.3h2.4v-4.6c0-1.2-.3-2.1-.9-2.7-.6-.6-1.4-.9-2.4-.9Z"/>
          <rect class="cls-3" x="248.3" y="1074" width="2.4" height="8.1"/>
          <path class="cls-3" d="M250.5,1070.6c-.2-.3-.5-.4-1-.4s-.8.2-1.1.4c-.3.2-.4.6-.4.9s0,.7.4.9c.3.3.7.4,1.1.4h0c.4,0,.7-.1,1-.3.3-.3.4-.6.4-1s-.1-.7-.4-.9Z"/>
          <path class="cls-3" d="M257.5,1073.9h-.2c-.5-.1-1,0-1.5.2-.4.2-.8.5-1.1.8v-.9h-2.2v8.1h2.4v-4c0-.7.2-1.2.5-1.6.3-.4.9-.6,1.4-.6s.9.2,1.2.5.4.8.4,1.4v4.3h2.4v-4.6c0-1.2-.3-2.1-.9-2.7-.6-.6-1.4-.9-2.4-.9Z"/>
          <path class="cls-3" d="M268.8,1074.9c-.6-.7-1.5-1.1-2.7-1.1s-1.4.2-2,.5c-.7.3-1.1.8-1.5,1.4-.3.5-.5,1.3-.5,2s0,1.4.5,2c.4.6.9,1.1,1.5,1.4.6.3.9.5,2,.5s2-.3,2.6-1v.3c0,.8-.2,1.3-.6,1.7-.4.4-1,.6-1.8.6s-1.1,0-1.6-.2-1-.4-1.3-.7l-.9,1.7c.4.3,1,.6,1.7.8q.7.3,2.2.3c1.5,0,2.6-.4,3.4-1.1.8-.7,1.2-1.8,1.2-3.3v-6.7h0c0-.1-2.2-.1-2.2-.1v1ZM268,1079.2c-.4.3-.9.5-1.5.5s-1.1,0-1.5-.5c-.4-.3-.6-.8-.6-1.4s.2-1,.6-1.4c.4-.4.9-.6,1.5-.6s1.1.2,1.5.6c.4.3.6.9.6,1.4s-.2,1-.6,1.4Z"/>
          <path class="cls-3" d="M273.7,1079.3c-.4,0-.7,0-1,.4-.3.2-.4.5-.4,1s0,.8.4,1.1c.2.3.6.4,1,.4s.7,0,1-.4c.3-.3.4-.7.4-1.1s-.1-.7-.4-1-.6-.4-1-.4Z"/>
          <path class="cls-3" d="M281.4,1073.9h-.2c-.5-.1-1,0-1.5.2-.4.2-.8.5-1.1.8v-.9h-2.2v8.1h2.4v-4c0-.7.2-1.2.5-1.6s.9-.6,1.4-.6.9.2,1.2.5.4.8.4,1.4v4.3h2.4v-4.6c0-1.2-.3-2.1-.9-2.7-.6-.6-1.4-.9-2.4-.9Z"/>
          <polygon class="cls-3" points="293.1 1075.3 293.1 1073.9 286.1 1073.9 286.1 1075.7 290.1 1075.7 286 1080.6 286 1082 293.2 1082 293.2 1080.2 289 1080.2 293.1 1075.3"/>
          <path class="cls-3" d="M304.9,1072.3c-1.1-.6-2.3-.9-3.7-.9h0c-1.4,0-2.7.3-3.8.9-1.1.6-2,1.5-2.6,2.5-.6,1-.9,2.2-.9,3.5s.3,2.4.9,3.5c.6,1.1,1.4,1.9,2.5,2.5s2.4.9,3.8.9,1.2,0,1.8-.2c.6,0,1.2-.3,1.6-.5l-.5-1.4c-.9.4-1.9.6-3,.6s-2.1-.2-2.9-.7c-.8-.4-1.4-1.1-1.9-1.9s-.7-1.7-.7-2.8.2-2,.7-2.8,1.2-1.4,2-1.9,1.8-.7,2.9-.7,2.1.3,2.9.7c.9.4,1.5,1,2,1.8.5.8.7,1.9.7,2.7s0,1.5-.3,1.9-.3.6-.8.6-.7-.3-.7-1v-4.9h-2v.9c-.5-.7-1.3-1-2.3-1s-1.3.2-1.8.5c-.5.4-.9.8-1.2,1.4-.3.5-.5,1.1-.5,1.9s.2,1.4.5,2c.3.5.7,1,1.2,1.3.6.3.6.5,1.8.5s2.1-.4,2.6-1.3c.2.5.5.8.8,1,.4.2.7.3,1.3.3s1.1-.2,1.6-.5.9-.8,1.1-1.4c.3-.6.4-1.1.4-2.3s-.3-2.3-.9-3.3c-.6-1-1.4-1.8-2.5-2.4ZM302.5,1079.9c-.4.3-.8.5-1.4.5h0c-.6,0-1.1,0-1.4-.4-.3-.3-.5-.9-.5-1.5s.2-1.1.5-1.5c.4-.4.8-.6,1.4-.6s1.1,0,1.4.5.5.9.5,1.5-.2,1.1-.5,1.5Z"/>
          <path class="cls-3" d="M315.8,1074.9c-.6-.7-1.5-1.1-2.7-1.1s-1.4.2-2,.5c-.7.3-1.1.8-1.5,1.4-.3.5-.5,1.3-.5,2s0,1.4.5,2c.4.6.9,1.1,1.5,1.4.6.3.9.5,2,.5s2-.3,2.6-1v.3c0,.8-.2,1.3-.6,1.7-.4.4-1,.6-1.8.6s-1.1,0-1.6-.2-1-.4-1.3-.7l-.9,1.7c.4.3,1,.6,1.7.8q.7.3,2.2.3c1.5,0,2.6-.4,3.4-1.1.8-.7,1.2-1.8,1.2-3.3v-6.7h0c0-.1-2.2-.1-2.2-.1v1ZM315.1,1079.2c-.4.3-.9.5-1.5.5s-1.1,0-1.5-.5c-.4-.3-.6-.8-.6-1.4s.2-1,.6-1.4c.4-.4.9-.6,1.5-.6s1.1.2,1.5.6c.4.3.6.9.6,1.4s-.2,1-.6,1.4Z"/>
          <path class="cls-3" d="M330.2,1073.9v-.2c-.7,0-1.3.2-1.8.4-.5.3-.9.6-1.2,1-.3-.4-.6-.8-1.1-1-.4-.2-.9-.3-1.5-.3s-1.1.1-1.5.3c-.4.2-.8.5-1.1.8v-.9h-2.2v8.1h2.4v-4.1c0-.7.2-1.2.5-1.6.3-.3.3-.5,1.3-.5s1.5.6,1.5,1.9v4.3h2.4v-4.1c0-.7.2-1.2.5-1.6.3-.3.8-.5,1.3-.5s.8.2,1.1.5.4.8.4,1.4v4.3h2.3v-4.6c0-1.2-.3-2.1-.9-2.7-.6-.6-1.4-.9-2.4-.9Z"/>
          <path class="cls-3" d="M338.6,1073.9h-.1c-.6,0-1.3,0-1.9.2-.6,0-1.2.4-1.6.7l.9,1.6c.3-.2.6-.4,1-.5.4-.2.7-.2,1.3-.2s1.1,0,1.4.4c.3.3.5.7.5,1.2h-1.9c-1.2,0-2,.2-2.6.6-.5.5-.8,1.1-.8,1.8s.2.9.4,1.3.5.7,1,.9c.4.2.4.3,1.6.3s2.1-.4,2.5-1.1v1h2.2v-4.6c0-1.2-.3-2.1-1-2.7-.7-.6-1.7-.9-2.9-.9ZM340.2,1079.5c-.2.3-.4.6-.7.8-.3.3-.7.3-1.1.3h0c-.4-.1-.8-.1-1-.3-.3,0-.4,0-.4-.7s.5-.9,1.5-.9h1.6v.8Z"/>
          <path class="cls-3" d="M346.5,1070.6c-.2-.3-.5-.4-1-.4s-.8.2-1.1.4c-.3.2-.4.6-.4.9s.1.7.4.9c.3.3.7.4,1.1.4h0c.4,0,.7-.1,1-.3.3-.3.4-.6.4-1s-.1-.7-.4-.9Z"/>
          <rect class="cls-3" x="344.3" y="1074" width="2.4" height="8.1"/>
          <rect class="cls-3" x="348.6" y="1070.9" width="2.4" height="11.2"/>
          <path class="cls-3" d="M353.7,1079.3c-.4,0-.7,0-1,.4-.3.2-.4.5-.4,1s0,.8.4,1.1c.2.3.6.4,1,.4s.7,0,1-.4c.3-.3.4-.7.4-1.1s-.1-.7-.4-1-.6-.4-1-.4Z"/>
          <path class="cls-3" d="M360.3,1075.8c.8,0,1.4.4,1.8,1.1l1.8-1c-.3-.6-.8-1.2-1.4-1.5-.6-.3-1.4-.5-2.2-.5s-1.6,0-2.3.5-1.2.9-1.6,1.5c-.4.6-.6,1.3-.6,2.1s.2,1.6.6,2.2c.4.6.9,1.1,1.6,1.5.7.3,1.4.5,2.3.5h0c.8,0,1.6-.2,2.2-.6.6-.4,1.1-.9,1.4-1.5l-1.8-1c-.4.7-1.2,1.1-1.8,1.1s-1.1-.2-1.5-.6c-.4-.4-.6-1-.6-1.6s.2-1.2.6-1.6c.4-.4.7-.6,1.5-.6Z"/>
          <path class="cls-3" d="M371.1,1074.4c-.7-.3-1.4-.5-2.3-.5s-1.6,0-2.3.5-1.2.9-1.6,1.5c-.4.6-.6,1.3-.6,2.1s.2,1.6.6,2.2c.4.6.9,1.1,1.6,1.5.7.3,1.4.5,2.3.5s1.6-.2,2.3-.5c.7-.4,1.2-.9,1.6-1.5.4-.7.6-1.4.6-2.2s-.2-1.5-.6-2.1c-.4-.7-.9-1.2-1.6-1.5ZM370.3,1079.6c-.4.4-.9.6-1.5.6s-1.1-.2-1.5-.6c-.4-.4-.6-.9-.6-1.6s.2-1.2.6-1.6c.4-.4.9-.6,1.5-.6s1.1.2,1.5.6c.4.4.6.9.6,1.6s-.2,1.2-.6,1.6Z"/>
          <path class="cls-3" d="M387.3,1074.8c-.6-.6-1.4-.9-2.4-.9v-.2c-.7,0-1.3.2-1.8.4-.5.3-.9.6-1.2,1-.3-.4-.6-.8-1.1-1-.4-.2-.9-.3-1.5-.3s-1.1.1-1.5.3c-.4.2-.8.5-1.1.8v-.9h-2.2v8.1h2.4v-4.1c0-.7.2-1.2.5-1.6.3-.3.3-.5,1.3-.5s1.5.6,1.5,1.9v4.3h2.4v-4.1c0-.7.2-1.2.5-1.6.3-.3.8-.5,1.3-.5s.8.2,1.1.5.4.8.4,1.4v4.3h2.3v-4.6c0-1.2-.3-2.1-.9-2.7Z"/>
          <polygon class="cls-3" points="170.7 1054.5 162 1054.5 162 1056.4 165.2 1056.4 165.2 1064.5 167.5 1064.5 167.5 1056.4 170.7 1056.4 170.7 1054.5"/>
          <path class="cls-3" d="M179.4,1063.5c.8-.8,1.2-1.9,1.2-3.4v-5.6h-2.3v5.5c0,.9-.2,1.6-.6,2-.3.4,0,.6-1.6.6s-2.2-.9-2.2-2.7v-5.5h-2.3v5.6c0,1.5.4,2.6,1.2,3.4.8.8,1.9,1.2,3.3,1.2h0c1.4,0,2.5-.3,3.3-1.1Z"/>
          <path class="cls-3" d="M184.9,1061.7h2.1l1.9,2.8h0c0-.1,2.5-.1,2.5-.1l-2.2-3.2c.6-.3,1.1-.7,1.5-1.2.3-.5.5-1.2.5-1.9s-.1-1.4-.5-1.9c-.4-.5-.8-.9-1.5-1.2s-1.4-.4-2.3-.4h-4.3v9.9h2.3v-2.8ZM184.8,1056.3h1.9c.7,0,1.2.2,1.6.5.3.3.5.7.5,1.3,0,.6-.1.9-.5,1.2-.4.3-.9.5-1.6.5h-1.9v-3.5Z"/>
          <path class="cls-3" d="M200.8,1063.8c.7-.5,1-1.3,1-2s-.2-1.2-.5-1.6c-.3-.4-.7-.7-1.3-.9.3-.2.7-.5.9-.8.3-.4.4-.5.4-1.3s-.3-1.4-1-1.9c-.7-.5-1.6-.7-2.8-.7h-4.8v9.9h5.1c1.3,0,2.3-.2,3-.7ZM195,1056.3h0c0-.1,2.3-.1,2.3-.1.6,0,1,.1,1.3.3.3.2.4.5.4.9s0,.7-.4.9c-.3.3-.7.3-1.3.3h-2.3v-2.3ZM195.1,1060.3h2.7c1.2,0,1.8.4,1.8,1.2s-.2.7-.5.9c-.3.3-.8.3-1.4.3h0c0,0-2.7,0-2.7,0v-2.5Z"/>
          <path class="cls-3" d="M205.3,1063.9c.8.5,1.8.7,2.8.7s2-.3,2.8-.7c.9-.4,1.5-1,2-1.8.5-.7.7-1.7.7-2.6s-.2-1.8-.7-2.6c-.5-.7-1.2-1.4-2-1.8-.9-.5-1.8-.7-2.8-.7s-2,.2-2.8.7c-.8.4-1.4,1-1.9,1.8-.5.8-.7,1.7-.7,2.6s.2,1.8.7,2.6c.4.7,1.1,1.4,1.9,1.8ZM205.4,1057.9c.3-.5.6-.8,1.1-1.1s1-.4,1.6-.4,1.1,0,1.6.4c.5.2.8.6,1.1,1.1.3.4.4.9.4,1.6s0,1.2-.4,1.7c-.3.4-.6.8-1.1,1.1s-1,.4-1.6.4-1.1,0-1.6-.4c-.4-.3-.8-.6-1.1-1.1s-.4-1.1-.4-1.7,0-1.1.4-1.6Z"/>
          <path class="cls-3" d="M220.8,1064c.8.4,1.7.6,2.7.6h0c.8.1,1.6,0,2.3-.3.7-.3,1.3-.7,1.8-1.3l-1.5-1.4c-.7.8-1.5,1.2-2.5,1.2s-1.1,0-1.6-.4c-.4-.3-.8-.6-1.1-1.1s-.4-1.1-.4-1.7,0-1.1.4-1.6c.2-.5.6-.8,1.1-1.1.4-.3.6-.4,1.6-.4s1.8.3,2.5,1.1l1.5-1.4c-.4-.6-1-1-1.7-1.3s-1.2-.5-2.3-.5-2,.3-2.8.7c-.8.4-1.4,1-1.9,1.8-.5.7-.7,1.6-.7,2.6s.2,1.9.7,2.7c.4.7,1.1,1.4,1.9,1.8Z"/>
          <polygon class="cls-3" points="236.1 1062.6 231.1 1062.6 231.1 1054.5 228.8 1054.5 228.8 1054.6 228.8 1064.5 236.1 1064.5 236.1 1062.6"/>
          <polygon class="cls-3" points="244.8 1062.7 239.4 1062.7 239.4 1060.4 244 1060.4 244 1058.6 239.4 1058.6 239.4 1056.4 244.6 1056.4 244.6 1054.6 237.1 1054.6 237.1 1064.5 244.8 1064.5 244.8 1062.7"/>
          <path class="cls-3" d="M252.8,1062.3l.9,2.1h2.4l-4.4-9.9h-2.3l-4.4,9.9h2.4l.9-2.1h4.5ZM250.6,1056.8l1.6,3.8h-3.2l1.6-3.8Z"/>
          <polygon class="cls-3" points="259.1 1058.4 264.1 1064.4 266 1064.4 266 1054.5 265.9 1054.5 263.6 1054.5 263.6 1060.5 258.7 1054.5 256.8 1054.5 256.8 1064.4 259.1 1064.4 259.1 1058.4"/>
          <rect class="cls-3" x="268.1" y="1054.5" width="2.3" height="9.9"/>
          <polygon class="cls-3" points="274.7 1058.4 279.7 1064.4 281.6 1064.4 281.6 1054.5 281.5 1054.5 279.2 1054.5 279.2 1060.5 274.3 1054.5 272.4 1054.5 272.4 1064.4 274.7 1064.4 274.7 1058.4"/>
          <path class="cls-3" d="M290.6,1064.4c.7-.3,1.4-.6,1.9-1v-4h-2.1v.2c0,0,0,2.9,0,2.9-.5.3-1.1.4-1.8.4s-1.2,0-1.7-.4c-.4-.3-.8-.6-1.1-1.1s-.4-1.1-.4-1.7,0-1.1.4-1.6c.2-.5.6-.8,1.1-1.1s.7-.4,1.7-.4,1.9.4,2.6,1.1l1.5-1.4c-.5-.6-1.1-1-1.8-1.3-.7-.3-1.4-.5-2.4-.5s-2,.3-2.8.7c-.9.4-1.5,1-2,1.8-.5.7-.7,1.6-.7,2.6s.2,1.9.7,2.7c.4.7,1.1,1.4,1.9,1.8s1.8.6,2.8.6,1.4-.1,2.1-.3Z"/>
          <polygon class="cls-3" points="305.4 1062.6 300.4 1062.6 300.4 1054.5 298.1 1054.5 298.1 1054.6 298.1 1064.5 305.4 1064.5 305.4 1062.6"/>
          <rect class="cls-3" x="306.4" y="1054.5" width="2.3" height="9.9"/>
          <polygon class="cls-3" points="320 1064.4 322.1 1064.4 322.1 1054.5 320.2 1054.5 316.5 1060.7 312.8 1054.5 310.9 1054.5 310.9 1064.4 313 1064.4 313 1058.6 315.9 1063.4 316.9 1063.4 319.8 1058.5 319.8 1064.5 320 1064.4"/>
          <rect class="cls-3" x="324" y="1054.5" width="2.3" height="9.9"/>
          <polygon class="cls-3" points="330.4 1064.5 332.7 1064.5 332.7 1056.4 335.9 1056.4 335.9 1054.5 327.2 1054.5 327.2 1056.4 330.4 1056.4 330.4 1064.5"/>
          <polygon class="cls-3" points="344.5 1062.7 339.1 1062.7 339.1 1060.4 343.7 1060.4 343.7 1058.6 339.1 1058.6 339.1 1056.4 344.3 1056.4 344.3 1054.6 336.8 1054.6 336.8 1064.5 344.5 1064.5 344.5 1062.7"/>
          <path class="cls-3" d="M355.4,1056.8c-.4-.7-1.1-1.3-1.9-1.7-.9-.4-1.8-.6-2.9-.6h-4.5v9.8h4.5c1.1,0,2.1-.2,2.9-.6.8-.4,1.4-1,1.9-1.7s.7-1.6.7-2.6-.3-1.9-.7-2.6ZM352.9,1061.8c-.6.5-1.4.8-2.4.8v.2h-2.1v-6.2h2.1c1,0,1.8.2,2.4.8.6.5.9,1.3.9,2.2s-.3,1.6-.9,2.2Z"/>
        </g>
      </g>
      <g id="log_img">
        <g class="cls-6">
          <image class="cls-2" width="247" height="235" transform="translate(81.2 1040.2) scale(.3)" xlink:href="Cleaning Services-eng (1)-2.png"/>
        </g>
      </g>
      <g id="title">
        <g>
          <path class="cls-7" d="M217.2,701.1c10.4,0,17.9-3.2,22.4-9.6,4.5-6.3,6.8-15.7,6.8-28.1s-.7-10.4-2.1-14.4c-1.4-4-3.2-7.5-5.4-10.5-2.3-2.9-5.1-6.1-8.5-9.4l-14.6-14c-4.7-4.4-7-8.6-7-12.7s.5-3.3,1.5-4.4,2.7-1.6,4.4-1.6,3,.5,3.9,1.5c.9.9,1.4,2.3,1.5,3.9v8.6h25.6c0-12.8-2.5-22.2-7.5-28.2s-14.9-9-24.4-9-16.7,2.8-21.6,8.4c-4.9,5.6-7.4,14.5-7.4,24.5s4.2,19,12.6,27.2l10.8,10.8c3.9,3.8,6.6,6.6,8.1,8.4s2.7,4,3.7,6.7,1.5,7,1.5,10.2-.4,5.4-1.3,6.7c-.9,1.3-.7,2-4.7,2s-6-3.1-6-9.3v-15.6h-24.7v12.3c0,12.5,2.5,21.6,7.6,27.3,5.1,5.7,13.3,8.5,24.7,8.5v-.2Z"/>
          <polygon class="cls-7" points="306.6 675.8 280.3 675.8 280.3 647 304 647 304 623.3 280.3 623.3 280.3 598.9 305 598.9 305 574.6 254.7 574.6 254.7 700.2 254.7 700.2 306.6 700.2 306.6 675.8"/>
          <path class="cls-7" d="M340.3,642.8c3.6,0,6,.5,7.4,1.5,1.4,1,2.1,3.2,2.1,6.7v49.1h24.6l.3-47.5c0-5.2-.9-9.3-2.6-12.3s-4.5-4.9-8.3-5.7c4.5-1.5,7.8-4.3,9.6-8.3,1.9-3.9,2.8-8.8,2.8-16.6s-.5-14.2-1.7-19.2c-1.2-5-3.4-8.9-6.8-11.7-3.3-2.8-8.1-4.2-14.2-4.2h-38.6v125.5h25.4v-57.3ZM340.5,597.9h5.8c1.5,0,2.6.4,3.4,1,.8.6,1.3,1.7,1.6,3.4.3,1.6.4-.2.4,7.4s-1.8,11.4-5.3,11.4h-5.9v-23.2Z"/>
          <polygon class="cls-7" points="396.2 700.2 430.6 700.2 446.1 574.5 422.1 574.5 413.9 660 404.7 574.5 380.7 574.5 396.2 700.2 396.2 700.2"/>
          <rect class="cls-7" x="452" y="574.6" width="24.3" height="125.6"/>
          <path class="cls-7" d="M547.3,646h-25.3v22.7c0,6.3-1.9,9.5-5.8,9.5s-3.4-.8-4.4-2.3c-1-1.5-1.5-3.9-1.5-7.2v-63c0-3.1.4-5.3,1.2-6.9.8-1.6,2.5-2.4,4.6-2.4s3.6.7,4.5,2.1c.9,1.3,1.3,3.8,1.3,7.4v18.6h25v-21.6c0-9.5-2.8-16.8-8.5-21.9-5.6-5.1-11.7-7.6-22.3-7.6s-18.4,3.2-23.4,9.5c-4.9,6.3-7.4,15.7-7.4,28.2v57.9c0,10.1,2.8,17.9,8.3,23.7,5.5,5.7,12.8,8.6,22,8.6,21.1,0,31.7-10.6,31.7-31.6v-23.7Z"/>
          <polygon class="cls-7" points="515.6 701.3 515.6 701.3 515.6 701.3 515.6 701.3"/>
          <polygon class="cls-7" points="607.5 675.8 581.2 675.8 581.2 647 604.9 647 604.9 623.3 581.2 623.3 581.2 598.9 605.9 598.9 605.9 574.6 555.6 574.6 555.6 700.2 555.6 700.2 607.5 700.2 607.5 675.8"/>
          <path class="cls-7" d="M161.7,738.3h-33.2v125.5h24.7v-49.7h10.2c9.9,0,16.7-3.2,20.5-9.5,3.8-6.3,5.7-15.8,5.7-28.2s-2.1-21.9-6.4-28.4-11.5-9.7-21.5-9.7ZM164.2,785c-.5,2.1-1.3,3.7-2.8,4.8s-3.7,1.7-6.7,1.7h-1.3v-30.4h2.8c3.5,0,5.8,1.2,7,3.5,1.1,2.3,1.7,7.5,1.7,11.4s-.3,6.9-.7,9Z"/>
          <polygon class="cls-7" points="197.5 738.3 197.5 738.3 197.5 738.2 197.5 738.3"/>
          <path class="cls-7" d="M256,790c1.9-3.9,2.8-8.8,2.8-16.6s-.5-14.2-1.7-19.2-3.4-8.9-6.8-11.7c-3.3-2.8-8.1-4.2-14.2-4.2h-38.6v125.5h25.4v-57.3c3.6,0,6,.5,7.4,1.5,1.4,1,2.1,3.2,2.1,6.7v49.1h24.6l.3-47.5c0-5.2-.9-9.3-2.6-12.3-1.7-3-4.5-4.9-8.3-5.7,4.5-1.5,7.8-4.3,9.6-8.3ZM229.1,784.7h-5.9v-23.2h5.8c1.5,0,2.6.4,3.4,1,.8.6,1.3,1.7,1.6,3.4.3,1.6.4-.2.4,7.4s-1.8,11.4-5.3,11.4Z"/>
          <path class="cls-7" d="M297.2,737c-10.1,0-17.8,2.8-23.1,8.3s-7.9,13.7-7.9,24.5v59.8c0,11.2,2.6,19.9,7.9,26.1s13,9.3,23.1,9.3h0c10.1,0,17.8-3.1,23.1-9.2,5.3-6.2,7.9-14.9,7.9-26.2v-59.8c0-10.8-2.6-19-7.9-24.5-5.3-5.5-13-8.3-23.1-8.3ZM302.9,830.8c0,3.5-.4,6.2-1.2,8.2-.7,1.9-2.3,2.9-4.5,2.9h0c-2.3-.1-3.9-1.1-4.8-2.9-.9-1.9-1.3-4.6-1.3-8.2v-61.2c0-6.3,2.1-9.5,6.3-9.5s3.8.9,4.5,2.6,1.1,4,1.1,6.7v61.4Z"/>
          <path class="cls-7" d="M371.5,738.3h-33.2v125.5h24.7v-49.7h10.2c9.9,0,16.7-3.2,20.5-9.5s5.7-15.8,5.7-28.2-2.1-21.9-6.4-28.4-11.5-9.7-21.5-9.7ZM373.9,785c-.5,2.1-1.3,3.7-2.8,4.8s-3.7,1.7-6.7,1.7h-1.3v-30.4h2.8c3.5,0,5.8,1.2,7,3.5,1.1,2.3,1.7,7.5,1.7,11.4s-.3,6.9-.7,9Z"/>
          <path class="cls-7" d="M437.2,737c-10.1,0-17.8,2.8-23.1,8.3s-7.9,13.7-7.9,24.5v59.8c0,11.2,2.6,19.9,7.9,26.1s13,9.3,23.1,9.3h0c10.1,0,17.8-3.1,23.1-9.2,5.3-6.2,7.9-14.9,7.9-26.2v-59.8c0-10.8-2.6-19-7.9-24.5-5.3-5.5-13-8.3-23.1-8.3ZM442.9,830.8c0,3.5-.4,6.2-1.2,8.2-.7,1.9-2.3,2.9-4.5,2.9h0c-2.3-.1-3.9-1.1-4.8-2.9-.9-1.9-1.3-4.6-1.3-8.2v-61.2c0-6.3,2.1-9.5,6.3-9.5s3.8.9,4.5,2.6,1.1,4,1.1,6.7v61.4Z"/>
          <path class="cls-7" d="M529.9,802.2c-2.3-2.9-5.1-6.1-8.5-9.4l-14.6-14c-4.7-4.4-7-8.6-7-12.7s.5-3.3,1.5-4.4,2.7-1.6,4.4-1.6,3,.5,3.9,1.5c.9.9,1.4,2.3,1.5,3.9v8.6h25.6c0-12.8-2.5-22.2-7.5-28.2s-14.9-9-24.4-9-16.7,2.8-21.6,8.4c-4.9,5.6-7.4,14.5-7.4,24.5s4.2,19,12.6,27.2l10.8,10.8c3.9,3.8,6.6,6.6,8.1,8.4s2.7,4,3.7,6.7,1.5,7,1.5,10.2-.4,5.4-1.3,6.7-.7,2-4.7,2-6-3.1-6-9.3v-15.6h-24.7v12.3c0,12.5,2.5,21.6,7.6,27.3,5.1,5.7,13.3,8.5,24.7,8.5v-.2c10.5,0,18-3.2,22.5-9.6,4.5-6.3,6.8-15.7,6.8-28.1s-.7-10.4-2.1-14.4-3.2-7.5-5.4-10.5Z"/>
          <path class="cls-7" d="M554.4,738.2l-12.1,125.6h24.4l1.5-20.3h15.2l1.8,20.3h23.8l-12-125.6h-42.6ZM570.1,823.5h0l4.7-63.9h1.2l5.6,63.9h-11.4Z"/>
          <polygon class="cls-7" points="641.7 842.4 641.7 738.2 616.6 738.2 616.6 863.7 667.6 863.7 667.6 842.4 641.7 842.4"/>
        </g>
      </g>
      <g id="sub_title">
        <g>
          <path class="cls-5" d="M156.9,915.5h5.5c2.4,0,4.5-.4,6.3-1.2s3.1-2,4.1-3.5,1.5-3.2,1.5-5.3-.5-3.8-1.5-5.3c-.9-1.5-2.3-2.7-4.1-3.5s-3.9-1.2-6.3-1.2h0c0,0-11.9,0-11.9,0v27.5h6.3v-7.6ZM156.8,900.8h5.2c1.9,0,3.3.4,4.3,1.2s1.5,2,1.5,3.5-.5,2.7-1.5,3.5c-.9.8-2.4,1.2-4.3,1.2h0c0,0-5.2,0-5.2,0v-9.5Z"/>
          <path class="cls-5" d="M191.9,907.2v-5.7c-1.6,0-3.1.3-4.3.8-1.3.5-2.3,1.3-3,2.3v-2.6h-5.8v21.1h6.1v-10c0-1.9.5-3.4,1.5-4.4s2.3-1.5,4.1-1.5h1.4Z"/>
          <path class="cls-5" d="M195.7,906.9c-1,1.6-1.5,3.5-1.5,5.6s.5,4,1.5,5.6,2.3,2.9,4.1,3.8c1.8.9,3.8,1.4,6,1.4s4.3-.5,6-1.4c1.7-.9,3.1-2.2,4.1-3.8s1.5-3.5,1.5-5.6-.5-3.9-1.5-5.6-2.3-3-4.1-3.9c-1.8-.9-3.8-1.4-6-1.4s-4.2.5-6,1.4c-1.7,1-3.1,2.3-4.1,3.9ZM201.9,908c1-1.1,2.4-1.6,3.9-1.6s2.8.5,3.8,1.6,1.5,2.5,1.5,4.3-.5,3.2-1.5,4.3c-.9,1.1-2.2,1.6-3.8,1.6s-2.9-.5-3.9-1.6-1.5-2.5-1.5-4.3.5-3.2,1.5-4.3Z"/>
          <path class="cls-5" d="M230.8,898.4c1,0,1.8.2,2.5.7l1.6-4.4c-.6-.3-1.3-.6-2.1-.8-.8-.2,0-.3-2.6-.3s-4.6.7-6,2.1c-1.4,1.4-2.1,3.3-2.1,5.7v.9h-3.3v4.7h3.3v15.9h6.1v-15.9h5.3v-4.7h-5.5c0,0,0-.8,0-.8,0-2.1.9-3.1,2.8-3.1Z"/>
          <path class="cls-5" d="M240.7,921.8c1.8.9,2.5,1.4,6.3,1.4s6.7-1.1,8.7-3.4l-3.2-3.5c-.7.7-1.5,1.3-2.4,1.6-.8.3-1.3.5-2.9.5s-2.9-.4-4-1.1c-1-.8-1.7-1.8-2-3.1h16c0-1.1,0-1.7,0-1.7h0c0-2.3-.4-4.3-1.4-5.9s-2.3-2.9-4-3.8c-1.7-.9-3.4-1.3-5.6-1.3s-4.1.5-5.8,1.4c-1.7.9-3,2.2-4,3.9-1,1.7-1.5,3.5-1.5,5.6s.5,4,1.5,5.6,2.4,2.9,4.2,3.8ZM242.8,907.4c.9-.8,2.1-1.2,3.5-1.2h.1c1.3,0,2.5.4,3.4,1.2.9.8,1.5,1.9,1.7,3.2h-10.4c.2-1.4.8-2.4,1.7-3.2Z"/>
          <path class="cls-5" d="M268.7,918.8c-1.3,0-2.6-.2-3.9-.6s-2.5-.9-3.4-1.5l-2,4.4c1,.6,2.3,1.2,4,1.6,1.6.4,3.4.6,5.1.6h.1c2,0,3.8-.1,5.3-.7,1.5-.6,2.6-1.4,3.4-2.4.8-1,1.2-2,1.2-3.5s-.4-2.7-1.2-3.6c-.9-.9-1.8-1.5-2.9-1.8-1.1-.3-2.5-.6-4.2-.9-1.6-.2-2.7-.4-3.4-.7-.7-.3-1.1-.8-1.1-1.4s.3-1,1-1.4c.7-.4.8-.6,3-.6s4.2.6,6.1,1.6l2-4.3c-1-.6-2.2-1.1-3.7-1.4-1.4-.3-2.4-.5-4.4-.5s-3.7.3-5.2.9c-1.5.6-2.6,1.4-3.4,2.4s-1.2,1.9-1.2,3.5.4,2.8,1.2,3.7c.8.9,1.8,1.5,2.9,1.8,1.1.3,2.6.6,4.3.9,1.4.2,2.5.4,3.2.7s1.1,0,1.1,1.3-1.3,1.9-3.9,1.9Z"/>
          <path class="cls-5" d="M287.5,906.9c.7-.4.8-.6,3-.6s4.2.6,6.1,1.6l2-4.3c-1-.6-2.2-1.1-3.7-1.4-1.4-.3-2.4-.5-4.4-.5s-3.7.3-5.2.9c-1.5.6-2.6,1.4-3.4,2.4s-1.2,1.9-1.2,3.5.4,2.8,1.2,3.7c.8.9,1.8,1.5,2.9,1.8,1.1.3,2.6.6,4.3.9,1.4.2,2.5.4,3.2.7s1.1,0,1.1,1.3-1.3,1.9-3.9,1.9-2.6-.2-3.9-.6-2.5-.9-3.4-1.5l-2,4.4c1,.6,2.3,1.2,4,1.6,1.6.4,3.4.6,5.1.6h.1c2,0,3.8-.1,5.3-.7,1.5-.6,2.6-1.4,3.4-2.4.8-1,1.2-2,1.2-3.5s-.4-2.7-1.2-3.6c-.9-.9-1.8-1.5-2.9-1.8-1.1-.3-2.5-.6-4.2-.9-1.6-.2-2.7-.4-3.4-.7-.7-.3-1.1-.8-1.1-1.4s.3-1,1-1.4Z"/>
          <path class="cls-5" d="M306.1,898.9c1.1,0,2-.4,2.7-1s1.1-1.5,1.1-2.5-.4-1.8-1.1-2.4-1.6-.9-2.7-.9-2,.3-2.7,1c-.7.6-1.1,1.5-1.1,2.4s.4,1.7,1.1,2.4,1.6,1,2.7,1Z"/>
          <rect class="cls-5" x="303" y="901.8" width="6.1" height="21.1"/>
          <path class="cls-5" d="M330.9,903c-1.8-.9-3.8-1.4-6-1.4s-4.2.5-6,1.4c-1.7,1-3.1,2.3-4.1,3.9s-1.5,3.5-1.5,5.6.5,4,1.5,5.6,2.3,2.9,4.1,3.8,3.8,1.4,6,1.4,4.3-.5,6-1.4c1.7-.9,3.1-2.2,4.1-3.8s1.5-3.5,1.5-5.6-.5-3.9-1.5-5.6-2.3-3-4.1-3.9ZM328.7,916.6c-.9,1.1-2.2,1.6-3.8,1.6s-2.9-.5-3.9-1.6-1.5-2.5-1.5-4.3.5-3.2,1.5-4.3,2.4-1.6,3.9-1.6,2.8.5,3.8,1.6,1.5,2.5,1.5,4.3-.5,3.2-1.5,4.3Z"/>
          <path class="cls-5" d="M362.1,923v-12.1c0-3.1-.8-5.4-2.4-7-1.6-1.6-3.7-2.4-6.3-2.4h-.1c-1.5,0-2.8.2-4,.7s-2.2,1.2-3,2.1v-2.5h-5.8v21.1h6.1v-10.4c0-1.8.5-3.3,1.4-4.2s2.3-1.4,3.7-1.4,2.5.4,3.2,1.2,1.1,2,1.1,3.7v11.2h6.1Z"/>
          <path class="cls-5" d="M386.3,922.9v-12c0-3.1-.8-5.4-2.6-7-1.7-1.6-4.2-2.4-7.5-2.4v-.2c-1.6,0-3.3.3-4.9.7-1.6.5-3,1.1-4.1,1.9l2.2,4.3c.8-.6,1.7-1.1,2.8-1.4,1.1-.3,1.7-.5,3.3-.5s2.8.4,3.6,1.1c.8.7,1.2,1.8,1.2,3.1h-4.9c-3,0-5.3.6-6.8,1.7s-2.2,2.6-2.2,4.6.3,2.3.9,3.3c.6,1,1.5,1.7,2.7,2.3,1.2.5,1.1.8,4.2.8s5.2-.9,6.4-2.9v2.6h5.7ZM380.2,916.3c-.3.9-.9,1.6-1.7,2.1s-1.7.7-2.8.7v.2c-1.1,0-2-.2-2.6-.7-.6-.5-.9-.2-.9-1.9s1.3-2.5,3.8-2.5h4.2v2.1Z"/>
          <rect class="cls-5" x="391.9" y="893.8" width="6.1" height="29.1"/>
          <path class="cls-5" d="M429.6,915.5c-1,1.9-3.1,2.9-4.7,2.9s-2.9-.6-4-1.6c-1.1-1.1-1.6-2.5-1.6-4.3s.6-3.3,1.6-4.3,2-1.6,4-1.6,3.6,1,4.7,2.9l4.8-2.5c-.7-1.7-1.9-3.1-3.6-4-1.6-.9-3.5-1.4-5.8-1.4s-4.3.5-6.1,1.4c-1.8,1-3.2,2.3-4.2,3.9s-1.5,3.5-1.5,5.6.5,4,1.5,5.6,2.4,2.9,4.2,3.8,3.9,1.4,6.1,1.4h0c2.2,0,4.1-.4,5.8-1.3,1.6-.9,2.8-2.2,3.6-3.9l-4.8-2.6Z"/>
          <rect class="cls-5" x="438" y="893.8" width="6.1" height="29.1"/>
          <path class="cls-5" d="M470.5,912.5h0c0-2.3-.4-4.3-1.4-5.9s-2.3-2.9-4-3.8c-1.7-.9-3.4-1.3-5.6-1.3s-4.1.5-5.8,1.4-3,2.2-4,3.9c-1,1.7-1.5,3.5-1.5,5.6s.5,4,1.5,5.6,2.4,2.9,4.2,3.8,2.5,1.4,6.3,1.4,6.7-1.1,8.7-3.4l-3.2-3.5c-.7.7-1.5,1.3-2.4,1.6-.8.3-1.3.5-2.9.5s-2.9-.4-4-1.1c-1-.8-1.7-1.8-2-3.1h16c0-1.1,0-1.7,0-1.7ZM454.4,910.6c.2-1.4.8-2.4,1.7-3.2.9-.8,2.1-1.2,3.5-1.2h0c1.3,0,2.5.4,3.4,1.2.9.8,1.5,1.9,1.7,3.2h-10.4Z"/>
          <path class="cls-5" d="M483.2,901.3c-1.7,0-3.4.3-5,.7-1.6.5-3,1.1-4.1,1.9l2.2,4.3c.8-.6,1.7-1.1,2.8-1.4s1.7-.5,3.3-.5,2.8.4,3.6,1.1c.8.7,1.2,1.8,1.2,3.1h-4.9c-3,0-5.3.6-6.8,1.7s-2.2,2.6-2.2,4.6.3,2.3.9,3.3c.6,1,1.5,1.7,2.7,2.3,1.2.5,1.1.8,4.2.8s5.2-.9,6.4-2.9v2.6h5.7v-12c0-3.1-.8-5.4-2.6-7-1.7-1.6-4.2-2.4-7.5-2.4v-.2ZM487.1,916.3c-.3.9-.9,1.6-1.7,2.1s-1.7.7-2.8.7v.2c-1.1,0-2-.2-2.6-.7-.6-.5-.9-.2-.9-1.9s1.3-2.5,3.8-2.5h4.2v2.1Z"/>
          <path class="cls-5" d="M514.2,923h6.1v-12.1c0-3.1-.8-5.4-2.4-7s-3.7-2.4-6.3-2.4h0c-1.5,0-2.8.2-4,.7s-2.2,1.2-3,2.1v-2.5h-5.8v21.1h6.1v-10.4c0-1.8.5-3.3,1.4-4.2s2.3-1.4,3.7-1.4,2.5.4,3.2,1.2c.7.8,1.1,2,1.1,3.7v11.2Z"/>
          <path class="cls-5" d="M545,919.8l-3.2-3.5c-.7.7-1.5,1.3-2.4,1.6-.8.3-1.3.5-2.9.5s-2.9-.4-4-1.1c-1-.8-1.7-1.8-2-3.1h16c0-1.1,0-1.7,0-1.7h0c0-2.3-.4-4.3-1.4-5.9s-2.3-2.9-4-3.8c-1.7-.9-3.4-1.3-5.6-1.3s-4.1.5-5.8,1.4-3,2.2-4,3.9c-1,1.7-1.5,3.5-1.5,5.6s.5,4,1.5,5.6,2.4,2.9,4.2,3.8,2.5,1.4,6.3,1.4,6.7-1.1,8.7-3.4ZM532.1,907.4c.9-.8,2.1-1.2,3.5-1.2h0c1.3,0,2.5.4,3.4,1.2s1.5,1.9,1.7,3.2h-10.4c.2-1.4.8-2.4,1.7-3.2Z"/>
          <path class="cls-5" d="M550.7,902v21.1h6.1v-10c0-1.9.5-3.4,1.5-4.4s2.3-1.5,4.1-1.5h1.4v-5.7c-1.6,0-3.1.3-4.3.8-1.3.5-2.3,1.3-3,2.3v-2.6h-5.8Z"/>
          <path class="cls-5" d="M590.8,902.3h-5.5c0,0,0-.8,0-.8,0-2.1.9-3.1,2.8-3.1s1.8.2,2.5.7l1.6-4.4c-.6-.3-1.3-.6-2.1-.8s0-.3-2.6-.3-4.6.7-6,2.1c-1.4,1.4-2.1,3.3-2.1,5.7v.9h-3.3v4.7h3.3v15.9h6.1v-15.9h5.3v-4.7Z"/>
          <path class="cls-5" d="M614,918.1c1-1.6,1.5-3.5,1.5-5.6s-.5-3.9-1.5-5.6-2.3-3-4.1-3.9-3.8-1.4-6-1.4-4.2.5-6,1.4c-1.7,1-3.1,2.3-4.1,3.9s-1.5,3.5-1.5,5.6.5,4,1.5,5.6,2.3,2.9,4.1,3.8,3.8,1.4,6,1.4,4.3-.5,6-1.4c1.7-.9,3.1-2.2,4.1-3.8ZM607.7,916.6c-.9,1.1-2.2,1.6-3.8,1.6s-2.9-.5-3.9-1.6-1.5-2.5-1.5-4.3.5-3.2,1.5-4.3,2.4-1.6,3.9-1.6,2.8.5,3.8,1.6,1.5,2.5,1.5,4.3-.5,3.2-1.5,4.3Z"/>
          <path class="cls-5" d="M625.7,913.1c0-1.9.5-3.4,1.5-4.4s2.3-1.5,4.1-1.5h1.4v-5.7c-1.6,0-3.1.3-4.3.8-1.3.5-2.3,1.3-3,2.3v-2.6h-5.8v21.1h6.1v-10Z"/>
          <path class="cls-5" d="M134.2,947.5c-1-1.6-2.3-2.9-4-3.8-1.7-.9-3.4-1.3-5.6-1.3s-4.1.5-5.8,1.4-3,2.2-4,3.9c-1,1.7-1.5,3.5-1.5,5.6s.5,4,1.5,5.6,2.4,2.9,4.2,3.8,2.5,1.4,6.3,1.4,6.7-1.1,8.7-3.4l-3.2-3.5c-.7.7-1.5,1.3-2.4,1.6-.8.3-1.3.5-2.9.5s-2.9-.4-4-1.1c-1-.8-1.7-1.8-2-3.1h16c.1-1.1.1-1.7.1-1.7h0c0-2.3-.4-4.3-1.4-5.9ZM119.5,951.5c.2-1.4.8-2.4,1.7-3.2.9-.8,2.1-1.2,3.5-1.2h0c1.3,0,2.5.4,3.4,1.2.9.8,1.5,1.9,1.7,3.2h-10.4Z"/>
          <polygon class="cls-5" points="154.6 942.7 148.6 957.1 142.8 942.7 136.5 942.7 145.4 963.8 151.7 963.8 160.6 942.7 160.5 942.7 154.6 942.7"/>
          <path class="cls-5" d="M178.4,943.7c-1.7-.9-3.4-1.3-5.6-1.3s-4.1.5-5.8,1.4-3,2.2-4,3.9c-1,1.7-1.5,3.5-1.5,5.6s.5,4,1.5,5.6,2.4,2.9,4.2,3.8c1.8.9,2.5,1.4,6.3,1.4s6.7-1.1,8.7-3.4l-3.2-3.5c-.7.7-1.5,1.3-2.4,1.6-.8.3-1.3.5-2.9.5s-2.9-.4-4-1.1c-1-.8-1.7-1.8-2-3.1h16c0-1.1,0-1.7,0-1.7h0c0-2.3-.4-4.3-1.4-5.9s-2.3-2.9-4-3.8ZM167.7,951.5c.2-1.4.8-2.4,1.7-3.2.9-.8,2.1-1.2,3.5-1.2h0c1.3,0,2.5.4,3.4,1.2.9.8,1.5,1.9,1.7,3.2h-10.4Z"/>
          <path class="cls-5" d="M193.8,945.5v-2.6h-5.8v21.1h6.1v-10c0-1.9.5-3.4,1.5-4.4s2.3-1.5,4.1-1.5h1.4v-5.7c-1.6,0-3.1.3-4.3.8-1.3.5-2.3,1.3-3,2.3Z"/>
          <path class="cls-5" d="M219.7,942.7l-6,14.3-5.9-14.3h-6.3l9.1,21.3v.2c-.4.9-.9,1.6-1.4,2-.5.4-1.4.6-2,.6s-1.2-.2-1.8-.4c-.6-.3-1.1-.6-1.6-1l-2.2,4.4c.7.6,1.5,1.1,2.6,1.4,1.1.3,1.3.5,3.3.5s3.8-.5,5.2-1.5c1.4-.9,2.6-2.7,3.6-5.1l9.5-22.4h-6.1Z"/>
          <path class="cls-5" d="M249.5,947.5c2,0,3.6,1,4.7,2.9l4.8-2.5c-.7-1.7-1.9-3.1-3.6-4-1.6-.9-3.5-1.4-5.8-1.4s-4.3.5-6.1,1.4c-1.8,1-3.2,2.3-4.2,3.9s-1.5,3.5-1.5,5.6.5,4,1.5,5.6,2.4,2.9,4.2,3.8,3.9,1.4,6.1,1.4h0c2.2,0,4.1-.4,5.8-1.3,1.6-.9,2.8-2.2,3.6-3.9l-4.8-2.6c-1,1.9-3.1,2.9-4.7,2.9s-2.9-.6-4-1.6c-1.1-1.1-1.6-2.5-1.6-4.3s.6-3.3,1.6-4.3c1.1-1.1,2-1.6,4-1.6Z"/>
          <path class="cls-5" d="M278.7,943.9c-1.8-.9-3.8-1.4-6-1.4s-4.2.5-6,1.4c-1.7,1-3.1,2.3-4.1,3.9s-1.5,3.5-1.5,5.6.5,4,1.5,5.6,2.3,2.9,4.1,3.8,3.8,1.4,6,1.4,4.3-.5,6-1.4c1.7-.9,3.1-2.2,4.1-3.8s1.5-3.5,1.5-5.6-.5-3.9-1.5-5.6-2.3-3-4.1-3.9ZM276.5,957.6c-.9,1.1-2.2,1.6-3.8,1.6s-2.9-.5-3.9-1.6-1.5-2.5-1.5-4.3.5-3.2,1.5-4.3,2.4-1.6,3.9-1.6,2.8.5,3.8,1.6,1.5,2.5,1.5,4.3-.5,3.2-1.5,4.3Z"/>
          <path class="cls-5" d="M294.2,945.5v-2.6h-5.8v21.1h6.1v-10c0-1.9.5-3.4,1.5-4.4s2.3-1.5,4.1-1.5h1.4v-5.7c-1.6,0-3.1.3-4.3.8-1.3.5-2.3,1.3-3,2.3Z"/>
          <path class="cls-5" d="M318.1,942.4h-.1c-1.5,0-2.8.2-4,.7s-2.2,1.2-3,2.1v-2.5h-5.8v21.1h6.1v-10.4c0-1.8.5-3.3,1.4-4.2s2.3-1.4,3.7-1.4,2.5.4,3.2,1.2,1.1,2,1.1,3.7v11.2h6.1v-12.1c0-3.1-.8-5.4-2.4-7-1.6-1.6-3.7-2.4-6.3-2.4Z"/>
          <path class="cls-5" d="M347.6,943.7c-1.7-.9-3.4-1.3-5.6-1.3s-4.1.5-5.8,1.4-3,2.2-4,3.9c-1,1.7-1.5,3.5-1.5,5.6s.5,4,1.5,5.6,2.4,2.9,4.2,3.8,2.5,1.4,6.3,1.4,6.7-1.1,8.7-3.4l-3.2-3.5c-.7.7-1.5,1.3-2.4,1.6-.8.3-1.3.5-2.9.5s-2.9-.4-4-1.1c-1-.8-1.7-1.8-2-3.1h16c0-1.1,0-1.7,0-1.7h0c0-2.3-.4-4.3-1.4-5.9s-2.3-2.9-4-3.8ZM336.9,951.5c.2-1.4.8-2.4,1.7-3.2.9-.8,2.1-1.2,3.5-1.2h0c1.3,0,2.5.4,3.4,1.2.9.8,1.5,1.9,1.7,3.2h-10.4Z"/>
          <path class="cls-5" d="M362.9,945.5v.2s0-2.8,0-2.8h-5.8v21.1h6.1v-10c0-1.9.5-3.4,1.5-4.4s2.3-1.5,4.1-1.5h1.4v-5.7c-1.6,0-3.1.3-4.3.8-1.3.5-2.3,1.3-3,2.3Z"/>
          <path class="cls-5" d="M401.2,943.9c-1.8-.9-3.8-1.4-6-1.4s-4.2.5-6,1.4c-1.7,1-3.1,2.3-4.1,3.9s-1.5,3.5-1.5,5.6.5,4,1.5,5.6,2.3,2.9,4.1,3.8,3.8,1.4,6,1.4,4.3-.5,6-1.4c1.7-.9,3.1-2.2,4.1-3.8s1.5-3.5,1.5-5.6-.5-3.9-1.5-5.6-2.3-3-4.1-3.9ZM399,957.6c-.9,1.1-2.2,1.6-3.8,1.6s-2.9-.5-3.9-1.6-1.5-2.5-1.5-4.3.5-3.2,1.5-4.3,2.4-1.6,3.9-1.6,2.8.5,3.8,1.6,1.5,2.5,1.5,4.3-.5,3.2-1.5,4.3Z"/>
          <path class="cls-5" d="M420.2,939.3c1,0,1.8.2,2.5.7l1.6-4.4c-.6-.3-1.3-.6-2.1-.8s0-.3-2.6-.3-4.6.7-6,2.1c-1.4,1.4-2.1,3.3-2.1,5.7v.9h-3.3v4.7h3.3v15.9h6.1v-15.9h5.3v-4.7h-5.5c0,0,0-.8,0-.8,0-2.1.9-3.1,2.8-3.1Z"/>
          <path class="cls-5" d="M452,942.7l-6,14.3-5.9-14.3h-6.3l9.1,21.3v.2c-.4.9-.9,1.6-1.4,2-.5.4-1.4.6-2,.6s-1.2-.2-1.8-.4c-.6-.3-1.1-.6-1.6-1l-2.2,4.4c.7.6,1.5,1.1,2.6,1.4s1.3.5,3.3.5,3.8-.5,5.2-1.5c1.4-.9,2.6-2.7,3.6-5.1l9.5-22.4h-6.1Z"/>
          <path class="cls-5" d="M476.6,943.9c-1.8-.9-3.8-1.4-6-1.4s-4.2.5-6,1.4c-1.7,1-3.1,2.3-4.1,3.9s-1.5,3.5-1.5,5.6.5,4,1.5,5.6,2.3,2.9,4.1,3.8,3.8,1.4,6,1.4,4.3-.5,6-1.4c1.7-.9,3.1-2.2,4.1-3.8s1.5-3.5,1.5-5.6-.5-3.9-1.5-5.6-2.3-3-4.1-3.9ZM474.4,957.6c-.9,1.1-2.2,1.6-3.8,1.6s-2.9-.5-3.9-1.6-1.5-2.5-1.5-4.3.5-3.2,1.5-4.3,2.4-1.6,3.9-1.6,2.8.5,3.8,1.6,1.5,2.5,1.5,4.3-.5,3.2-1.5,4.3Z"/>
          <path class="cls-5" d="M501.5,953.1c0,1.9-.4,3.3-1.3,4.3-.9.9-.6,1.4-3.5,1.4s-4.3-1.7-4.3-5.1v-11h-6.1v11.9c0,3.1.8,5.5,2.4,7.1s3.8,2.4,6.6,2.4,2.5-.2,3.6-.7c1.1-.5,2.1-1.2,2.9-2.1v2.5h5.8v-21.1h0s-6.1,0-6.1,0v10.4Z"/>
          <path class="cls-5" d="M519.1,945.5v-2.6h-5.8v21.1h6.1v-10c0-1.9.5-3.4,1.5-4.4s2.3-1.5,4.1-1.5h1.4v-5.7c-1.6,0-3.1.3-4.3.8-1.3.5-2.3,1.3-3,2.3Z"/>
          <path class="cls-5" d="M554.3,952.2c-1.1-.3-2.5-.6-4.2-.9-1.6-.2-2.7-.4-3.4-.7-.7-.3-1.1-.8-1.1-1.4s.3-1,1-1.4c.7-.4.8-.6,3-.6s4.2.6,6.1,1.6l2-4.3c-1-.6-2.2-1.1-3.7-1.4-1.4-.3-2.4-.5-4.4-.5s-3.7.3-5.2.9c-1.5.6-2.6,1.4-3.4,2.4s-1.2,1.9-1.2,3.5.4,2.8,1.2,3.7c.8.9,1.8,1.5,2.9,1.8,1.1.3,2.6.6,4.3.9,1.4.2,2.5.4,3.2.7.7.3,1.1,0,1.1,1.3s-1.3,1.9-3.9,1.9-2.6-.2-3.9-.6c-1.3-.4-2.5-.9-3.4-1.5l-2,4.4c1,.6,2.3,1.2,4,1.6,1.6.4,3.4.6,5.1.6h.1c2,0,3.8-.1,5.3-.7,1.5-.6,2.6-1.4,3.4-2.4s1.2-2,1.2-3.5-.4-2.7-1.2-3.6c-.9-.9-1.8-1.5-2.9-1.8Z"/>
          <path class="cls-5" d="M579.9,943.8c-1.6-.9-3.3-1.4-5.3-1.4h-.1c-2.9.1-5.1,1-6.6,2.8v-2.4h-5.8v28.7h6.1v-9.9c1.6,1.7,4.5,2.6,6.4,2.6s3.7-.5,5.3-1.4c1.6-.9,2.9-2.2,3.8-3.8.9-1.6,1.4-3.5,1.4-5.7s-.5-4.1-1.4-5.7c-.9-1.6-2.2-2.9-3.8-3.8ZM577.3,957.6c-.9,1.1-2.2,1.6-3.8,1.6s-2.9-.5-3.9-1.6-1.5-2.5-1.5-4.3.5-3.2,1.5-4.3,2.4-1.6,3.9-1.6,2.8.5,3.8,1.6,1.5,2.5,1.5,4.3-.5,3.2-1.5,4.3Z"/>
          <path class="cls-5" d="M597.7,942.4v-.2c-1.6,0-3.3.3-4.9.7-1.6.5-3,1.1-4.1,1.9l2.2,4.3c.8-.6,1.7-1.1,2.8-1.4s1.7-.5,3.3-.5,2.8.4,3.6,1.1c.8.7,1.2,1.8,1.2,3.1h-4.9c-3,0-5.3.6-6.8,1.7s-2.2,2.6-2.2,4.6.3,2.3.9,3.3c.6,1,1.5,1.7,2.7,2.3,1.2.5,1.1.8,4.2.8s5.2-.9,6.4-2.9v2.6h5.7v-12c0-3.1-.8-5.4-2.6-7-1.7-1.6-4.2-2.4-7.5-2.4ZM601.7,957.3c-.3.9-.9,1.6-1.7,2.1s-1.7.7-2.8.7v.2c-1.1,0-2-.2-2.6-.7-.6-.5-.9-.2-.9-1.9s1.3-2.5,3.8-2.5h4.2v2.1Z"/>
          <path class="cls-5" d="M623.5,947.5c2,0,3.6,1,4.7,2.9l4.8-2.5c-.7-1.7-1.9-3.1-3.6-4-1.6-.9-3.5-1.4-5.8-1.4s-4.3.5-6.1,1.4c-1.8,1-3.2,2.3-4.2,3.9s-1.5,3.5-1.5,5.6.5,4,1.5,5.6,2.4,2.9,4.2,3.8,3.9,1.4,6.1,1.4h0c2.2,0,4.1-.4,5.8-1.3,1.6-.9,2.8-2.2,3.6-3.9l-4.8-2.6c-1,1.9-3.1,2.9-4.7,2.9s-2.9-.6-4-1.6c-1.1-1.1-1.6-2.5-1.6-4.3s.6-3.3,1.6-4.3,2-1.6,4-1.6Z"/>
          <path class="cls-5" d="M651.9,943.7c-1.7-.9-3.4-1.3-5.6-1.3s-4.1.5-5.8,1.4-3,2.2-4,3.9c-1,1.7-1.5,3.5-1.5,5.6s.5,4,1.5,5.6,2.4,2.9,4.2,3.8,2.5,1.4,6.3,1.4,6.7-1.1,8.7-3.4l-3.2-3.5c-.7.7-1.5,1.3-2.4,1.6-.8.3-1.3.5-2.9.5s-2.9-.4-4-1.1c-1-.8-1.7-1.8-2-3.1h16c0-1.1,0-1.7,0-1.7h0c0-2.3-.4-4.3-1.4-5.9s-2.3-2.9-4-3.8ZM641.1,951.5c.2-1.4.8-2.4,1.7-3.2s2.1-1.2,3.5-1.2h0c1.3,0,2.5.4,3.4,1.2s1.5,1.9,1.7,3.2h-10.4Z"/>
          <path class="cls-5" d="M666.4,957.7c-.7-.7-1.6-1-2.7-1s-2,.3-2.7,1c-.7.7-1.1,1.6-1.1,2.7s.4,2,1.1,2.7c.7.7,1.6,1.1,2.7,1.1s2-.4,2.7-1.1c.7-.7,1.1-1.6,1.1-2.7s-.4-2-1.1-2.7Z"/>
          <path class="cls-5" d="M216.4,507.8c2.1,1.1,4.6,1.7,7.3,1.7s3.7-.3,5.6-.9c1.8-.6,3.5-1.4,4.9-2.5v-10.6h-5.5v.4c0,0,0,7.6,0,7.6-1.4.7-3.1,1.1-4.7,1.1s-3.1-.4-4.4-1.1c-1.3-.8-2.3-1.7-3-3s-1.1-2.6-1.1-4.3.4-3.1,1.1-4.4c.7-1.2,1.7-2.2,3-2.9s1.8-1,4.4-1,4.8.9,6.7,2.9l3.9-3.6c-1.3-1.4-2.8-2.5-4.7-3.3-1.8-.8-3.5-1.2-6.2-1.2s-5.2.6-7.4,1.7c-2.2,1.1-3.9,2.8-5.1,4.8s-1.8,4.4-1.8,6.9.6,4.9,1.8,6.9c1.3,2.1,2.9,3.7,5.1,4.8Z"/>
          <path class="cls-5" d="M247.2,509.2c1.3,0,2.4-.2,3.5-.7,1-.5,1.9-1.1,2.7-2v2.4h5.5v-20h0c0,0-5.8,0-5.8,0v9.9c0,1.8-.5,3.2-1.3,4.1-.8,1-.6,1.4-3.3,1.4s-4.1-1.6-4.1-4.8v-10.5h-5.8v11.3c0,2.9.8,5.2,2.3,6.7,1.6,1.5,3.7,2.3,6.3,2.3Z"/>
          <path class="cls-5" d="M267.4,508c1.7.9,2.3,1.3,6,1.3s6.4-1,8.3-3.2l-3.1-3.4c-.7.7-1.5,1.2-2.3,1.5s-1.3.5-2.8.5-2.8-.4-3.8-1.1c-1-.8-1.6-1.8-1.9-3h15.2c0-.8,0-1.3,0-1.5,0-2.1-.5-3.9-1.4-5.5-.9-1.6-2.1-2.8-3.7-3.6-1.6-.9-3.2-1.3-5.3-1.3s-3.9.4-5.5,1.3c-1.6.9-2.9,2.1-3.8,3.7-.9,1.6-1.4,3.3-1.4,5.3s.5,3.7,1.4,5.3c.9,1.6,2.3,2.8,4,3.7ZM269.5,494.1c.9-.7,2-1.1,3.3-1.1h.1c1.3,0,2.4.3,3.3,1.1.9.7,1.4,1.7,1.6,3h-9.9c.2-1.3.7-2.3,1.6-3Z"/>
          <path class="cls-5" d="M293.1,504.9c-1.2,0-2.4-.1-3.7-.5-1.2-.4-2.3-.8-3.2-1.4l-1.9,4.2c1,.6,2.2,1.1,3.8,1.5,1.6.4,3.2.6,4.9.6h-.2c2-.1,3.7-.4,5.1-.9,1.5-.5,2.6-1.2,3.3-2.2.7-.9,1.1-1.9,1.1-3.3s-.4-2.6-1.2-3.4c-.7-.8-1.6-1.4-2.7-1.7-1-.3-2.4-.6-4-.9-1.5-.2-2.5-.5-3.2-.7-.7-.2-1-.8-1-1.3s.3-1,.9-1.3.7-.5,2.8-.5,4,.5,5.8,1.5l1.9-4.1c-.9-.6-2.1-1-3.5-1.3-1.4-.3-2.3-.5-4.2-.5s-3.6.3-5,.8c-1.4.6-2.5,1.3-3.2,2.3s-1.1,1.9-1.1,3.4.4,2.7,1.2,3.5,1.7,1.4,2.8,1.7c1.1.4,2.5.7,4.1.9,1.4.1,2.4.4,3.1.6s1,0,1,1.2-1.2,1.8-3.7,1.8Z"/>
          <path class="cls-5" d="M312.1,504.9c-1.2,0-2.4-.1-3.7-.5-1.2-.4-2.3-.8-3.2-1.4l-1.9,4.2c1,.6,2.2,1.1,3.8,1.5,1.6.4,3.2.6,4.9.6h-.2c2-.1,3.7-.4,5.1-.9,1.5-.5,2.6-1.2,3.3-2.2.7-.9,1.1-1.9,1.1-3.3s-.4-2.6-1.2-3.4c-.7-.8-1.6-1.4-2.7-1.7-1-.3-2.4-.6-4-.9-1.5-.2-2.5-.5-3.2-.7-.7-.2-1-.8-1-1.3s.3-1,.9-1.3.7-.5,2.8-.5,4,.5,5.8,1.5l1.9-4.1c-.9-.6-2.1-1-3.5-1.3-1.4-.3-2.3-.5-4.2-.5s-3.6.3-5,.8c-1.4.6-2.5,1.3-3.2,2.3s-1.1,1.9-1.1,3.4.4,2.7,1.2,3.5,1.7,1.4,2.8,1.7c1.1.4,2.5.7,4.1.9,1.4.1,2.4.4,3.1.6s1,0,1,1.2-1.2,1.8-3.7,1.8Z"/>
          <polygon class="cls-5" points="340.3 493.7 347.9 506.3 350.6 506.3 358.3 493.4 358.3 509 358.4 509 364 509 364 482.9 359 482.9 349.4 499.1 339.6 482.9 334.6 482.9 334.6 509 340.3 509 340.3 493.7"/>
          <path class="cls-5" d="M369.8,498.7c-1.4,1.1-2.1,2.5-2.1,4.4s.3,2.2.9,3.1c.6,1,1.5,1.7,2.6,2.2,1.1.5,1,.8,4,.8s5-.9,6.1-2.8v2.5h5.4v-11.4c0-3-.8-5.2-2.5-6.7s-4.1-2.2-7.2-2.2h0c-1.6,0-3.2.2-4.7.6-1.5.4-2.8,1-3.9,1.8l2.1,4.1c.7-.6,1.6-1.1,2.6-1.4,1.1-.3,1.6-.5,3.2-.5s2.7.3,3.5,1c.8.7,1.2,1.6,1.2,2.9h-4.6c-2.9,0-5.1.5-6.5,1.6ZM380.9,500.5v2.1c-.4.9-.9,1.5-1.7,2-.7.5-1.6.7-2.6.7h0c-1,0-1.8-.2-2.4-.6-.6-.5-.9-.2-.9-1.8s1.2-2.4,3.6-2.4h4Z"/>
          <path class="cls-5" d="M397.1,498.9c0-1.8.4-3.1,1.3-4s2.2-1.4,3.5-1.4,2.3.4,3,1.2,1,2,1,3.6v10.6h5.8v-11.5c0-2.9-.8-5.1-2.3-6.6s-3.5-2.2-6-2.2h.2c-1.4-.1-2.7,0-3.8.6-1.2.5-2.1,1.2-2.9,2v-2.4h-5.6v20h5.8v-9.9Z"/>
          <path class="cls-5" d="M417.1,498.7c-1.4,1.1-2.1,2.5-2.1,4.4s.3,2.2.9,3.1c.6,1,1.5,1.7,2.6,2.2,1.1.5,1,.8,4,.8s5-.9,6.1-2.8v2.5h5.4v-11.4c0-3-.8-5.2-2.5-6.7s-4.1-2.2-7.2-2.2h0c-1.6,0-3.2.2-4.7.6-1.5.4-2.8,1-3.9,1.8l2.1,4.1c.7-.6,1.6-1.1,2.6-1.4,1.1-.3,1.6-.5,3.2-.5s2.7.3,3.5,1c.8.7,1.2,1.6,1.2,2.9h-4.6c-2.9,0-5.1.5-6.5,1.6ZM428.1,500.5v2.1c-.4.9-.9,1.5-1.7,2-.7.5-1.6.7-2.6.7h0c-1,0-1.8-.2-2.4-.6-.6-.5-.9-.2-.9-1.8s1.2-2.4,3.6-2.4h4Z"/>
          <polygon class="cls-5" points="448.6 508.9 453.2 496.5 457.7 508.9 463.3 508.9 470.6 488.9 470.6 488.9 465.5 488.9 460.6 502.5 455.8 488.9 450.9 488.9 446 502.5 441.3 488.9 435.8 488.9 443 508.9 448.6 508.9"/>
          <path class="cls-5" d="M473.5,498.7c-1.4,1.1-2.1,2.5-2.1,4.4s.3,2.2.9,3.1c.6,1,1.5,1.7,2.6,2.2,1.1.5,1,.8,4,.8s5-.9,6.1-2.8v2.5h5.4v-11.4c0-3-.8-5.2-2.5-6.7s-4.1-2.2-7.2-2.2h0c-1.6,0-3.2.2-4.7.6-1.5.4-2.8,1-3.9,1.8l2.1,4.1c.7-.6,1.6-1.1,2.6-1.4,1.1-.3,1.6-.5,3.2-.5s2.7.3,3.5,1c.8.7,1.2,1.6,1.2,2.9h-4.6c-2.9,0-5.1.5-6.5,1.6ZM484.5,500.5v2.1c-.4.9-.9,1.5-1.7,2-.7.5-1.6.7-2.6.7h0c-1,0-1.8-.2-2.4-.6-.6-.5-.9-.2-.9-1.8s1.2-2.4,3.6-2.4h4Z"/>
          <path class="cls-5" d="M526.3,507.2c1.8-1.2,2.7-3,2.7-5.3s-.5-3-1.3-4.1c-.9-1.1-2-1.9-3.5-2.4h0c1-.5,1.9-1.3,2.5-2.3.6-1,.9-1.3.9-3.4s-.9-3.8-2.6-5-4.1-1.8-7.3-1.8h-12.7v26.1h13.5c3.4,0,6-.6,7.8-1.8ZM511,487.4h6c1.5,0,2.6.3,3.4.8s1.2,1.3,1.2,2.3-.4,1.8-1.2,2.3c-.8.5-1.9.8-3.4.8h-6v-6.2ZM518.1,504.5h-7v-6.5h7c3.2,0,4.8,1,4.8,3.2s-.4,1.9-1.2,2.4-2,.8-3.6.8h0Z"/>
          <path class="cls-5" d="M533.2,498.7c-1.4,1.1-2.1,2.5-2.1,4.4s.3,2.2.9,3.1c.6,1,1.5,1.7,2.6,2.2s1,.8,4,.8,5-.9,6.1-2.8v2.5h5.4v-11.4c0-3-.8-5.2-2.5-6.7s-4.1-2.2-7.2-2.2h0c-1.6,0-3.2.2-4.7.6-1.5.4-2.8,1-3.9,1.8l2.1,4.1c.7-.6,1.6-1.1,2.6-1.4,1.1-.3,1.6-.5,3.2-.5s2.7.3,3.5,1c.8.7,1.2,1.6,1.2,2.9h-4.6c-2.9,0-5.1.5-6.5,1.6ZM544.3,500.5v2.1c-.4.9-.9,1.5-1.7,2-.7.5-1.6.7-2.6.7h0c-1,0-1.8-.2-2.4-.6-.6-.5-.9-.2-.9-1.8s1.2-2.4,3.6-2.4h4Z"/>
          <path class="cls-5" d="M560,509.3c-.4.9-.8,1.5-1.3,1.9-.5.4-1.4.6-1.9.6s-1.1,0-1.7-.3c-.5-.2-1.1-.5-1.5-.9l-2.1,4.1c.7.5,1.5,1,2.5,1.3s1.2.5,3.1.5,3.5-.5,4.9-1.4c1.3-1,2.5-2.6,3.4-4.9l9.1-21.3h-5.8l-5.7,13.6-5.6-13.6h-6l8.6,20.2v.2Z"/>
          <path class="cls-5" d="M183,538.7h5.2c2.3,0,4.3-.3,6-1.1s3-1.9,3.9-3.3c.9-1.4,1.4-3.1,1.4-5s-.5-3.6-1.4-5c-.9-1.4-2.2-2.5-3.9-3.3s-3.7-1.2-6-1.2h-11.2v26.1h6v-7.2ZM182.9,524.7h4.9c1.8,0,3.2.4,4.1,1.2.9.8,1.4,2,1.4,3.4s-.4,2.5-1.4,3.3c-.9.8-2.3,1.2-4.1,1.2h0s-4.9,0-4.9,0v-9.1Z"/>
          <path class="cls-5" d="M208.9,536.5c0-1.9.5-3.3,1.4-4.2.9-.9,2.2-1.4,3.9-1.4h1.3v-5.3c-1.6,0-2.9.2-4.1.7-1.1.5-2,1.1-2.7,2.1v-2.4h-5.6v20h5.8v-9.5Z"/>
          <path class="cls-5" d="M227.5,525.6c-2.1,0-3.9.4-5.5,1.3-1.6.9-2.9,2.1-3.8,3.7-.9,1.6-1.4,3.3-1.4,5.3s.5,3.7,1.4,5.3c.9,1.6,2.3,2.8,4,3.7,1.7.9,2.3,1.3,6,1.3s6.4-1,8.3-3.2l-3.1-3.4c-.7.7-1.5,1.2-2.3,1.5-.8.3-1.3.5-2.8.5s-2.8-.4-3.8-1.1c-1-.8-1.6-1.8-1.9-3h15.2c0-.8,0-1.3,0-1.5,0-2.1-.5-3.9-1.4-5.5-.9-1.6-2.1-2.8-3.7-3.6-1.6-.9-3.2-1.3-5.3-1.3ZM222.7,534.1c.2-1.3.7-2.3,1.6-3,.9-.7,2-1.1,3.3-1.1h0c1.3,0,2.4.3,3.3,1.1.9.7,1.4,1.7,1.6,3h-9.9Z"/>
          <path class="cls-5" d="M253,525.3c-1.3,0-2.5.3-3.6.7-1.1.4-2,1.1-2.7,1.9v-2.3h-5.6v20h5.8v-10c0-1.7.4-3,1.2-3.9.8-.9.7-1.3,3.2-1.3s3.8,1.5,3.8,4.7v10.6h5.8v-10c0-1.7.4-3,1.2-3.9.8-.9,2-1.3,3.2-1.3s2.1.4,2.8,1.2,1,2,1,3.6v10.6h5.8v-11.5c0-2.9-.7-5.1-2.2-6.6s-3.5-2.2-6-2.2v-.4c-1.4,0-2.7.3-4,.9-1.2.6-2.3,1.4-3.1,2.4-.7-1-1.7-1.8-2.8-2.4-1.1-.5-2.5-.8-3.8-.8Z"/>
          <path class="cls-5" d="M284.9,522.2c.7-.6,1-1.5,1-2.4s-.3-1.6-1-2.2c-.7-.6-1.6-.9-2.6-.9s-1.9.3-2.6.9-1,1.4-1,2.3.3,1.7,1,2.3c.7.6,1.5.9,2.6.9h0c1.1.1,1.9-.3,2.6-.9Z"/>
          <rect class="cls-5" x="279.4" y="525.9" width="5.8" height="20"/>
          <path class="cls-5" d="M304.6,543.5v2.4h5.5v-20h0c0-.1-5.8-.1-5.8-.1v9.9c0,1.8-.5,3.2-1.3,4.1-.8,1-.6,1.4-3.3,1.4s-4.1-1.6-4.1-4.8v-10.5h-5.8v11.3c0,2.9.8,5.2,2.3,6.7,1.6,1.5,3.7,2.3,6.3,2.3s2.4-.2,3.5-.7c1-.5,1.9-1.1,2.7-2Z"/>
          <path class="cls-5" d="M320.4,527.9v-2.3h-5.6v20h5.8v-10c0-1.7.4-3,1.2-3.9.8-.9.7-1.3,3.2-1.3s3.8,1.5,3.8,4.7v10.6h5.8v-10c0-1.7.4-3,1.2-3.9.8-.9,2-1.3,3.2-1.3s2.1.4,2.8,1.2,1,2,1,3.6v10.6h5.8v-11.5c0-2.9-.7-5.1-2.2-6.6s-3.5-2.2-6-2.2v-.4c-1.4,0-2.7.3-4,.9-1.2.6-2.3,1.4-3.1,2.4-.7-1-1.7-1.8-2.8-2.4-1.1-.5-2.5-.8-3.8-.8s-2.5.3-3.6.7c-1.1.4-2,1.1-2.7,1.9Z"/>
          <path class="cls-5" d="M361.7,532.9c0,2.5.6,4.9,1.8,6.9s2.9,3.6,5.1,4.8c2.2,1.1,4.6,1.7,7.3,1.7s5.1-.5,7.3-1.7,3.9-2.8,5.1-4.8c1.3-2,1.9-4.3,1.9-6.9s-.7-4.9-1.9-6.9-2.9-3.7-5.1-4.8c-2.2-1.1-4.6-1.7-7.3-1.7s-5.1.5-7.3,1.7c-2.2,1.1-3.9,2.8-5.1,4.8-1.2,2-1.8,4.4-1.8,6.9ZM368.8,528.5c.7-1.3,1.7-2.3,2.9-3,1.3-.7,2.6-1.1,4.2-1.1s3,.4,4.2,1.1c1.2.8,2.2,1.7,2.9,3,.7,1.2,1.1,2.7,1.1,4.3s-.4,3-1.1,4.3c-.7,1.3-1.7,2.3-2.9,3-1.3.7-2.7,1.1-4.2,1.1s-3-.4-4.2-1.1c-1.2-.8-2.2-1.7-2.9-3s-1.1-2.7-1.1-4.3.4-3,1.1-4.3Z"/>
          <path class="cls-5" d="M408.2,545.9h5.5v-20h0c0-.1-5.8-.1-5.8-.1v9.9c0,1.8-.5,3.2-1.3,4.1-.8,1-.6,1.4-3.3,1.4s-4.1-1.6-4.1-4.8v-10.5h-5.8v11.3c0,2.9.8,5.2,2.3,6.7,1.6,1.5,3.7,2.3,6.3,2.3s2.4-.2,3.5-.7c1-.5,1.9-1.1,2.7-2v2.4Z"/>
          <path class="cls-5" d="M421.1,544.4c1.3,1.2,3.1,1.8,5.5,1.8s1.8,0,2.6-.3c.8-.3,1.5-.6,2.1-1v.2c0,0-1.5-4.1-1.5-4.1-.7.5-1.6.7-2.4.7s-1.5-.2-1.9-.7c-.4-.5-.6-1.2-.6-2v-8.2h5v-4.5h-5v-4.9h-5.8v4.9h-3.1v4.5h3.1v8.2c0,2.4.7,4.2,2,5.4Z"/>
          <rect class="cls-5" x="433.8" y="518.3" width="5.8" height="27.6"/>
          <path class="cls-5" d="M448.2,544.9c1.7.9,2.3,1.3,6,1.3s6.4-1,8.3-3.2l-3.1-3.4c-.7.7-1.5,1.2-2.3,1.5s-1.3.5-2.8.5-2.8-.4-3.8-1.1c-1-.8-1.6-1.8-1.9-3h15.2c0-.8,0-1.3,0-1.5,0-2.1-.5-3.9-1.4-5.5-.9-1.6-2.1-2.8-3.7-3.6-1.6-.9-3.2-1.3-5.3-1.3s-3.9.4-5.5,1.3c-1.6.9-2.9,2.1-3.8,3.7-.9,1.6-1.4,3.3-1.4,5.3s.5,3.7,1.4,5.3c.9,1.6,2.3,2.8,4,3.7ZM450.2,531.1c.9-.7,2-1.1,3.3-1.1h.1c1.3,0,2.4.3,3.3,1.1.9.7,1.4,1.7,1.6,3h-9.9c.2-1.3.7-2.3,1.6-3Z"/>
          <path class="cls-5" d="M477.9,545.9c.8-.3,1.5-.6,2.1-1v.2c0,0-1.5-4.1-1.5-4.1-.7.5-1.6.7-2.4.7s-1.5-.2-1.9-.7c-.4-.5-.6-1.2-.6-2v-8.2h5v-4.5h-5v-4.9h-5.8v4.9h-3.1v4.5h3.1v8.2c0,2.4.7,4.2,2,5.4s3.1,1.8,5.5,1.8,1.8,0,2.6-.3Z"/>
          <path class="cls-5" d="M498,544.6c2.1,1.1,4.5,1.7,7.2,1.7v.4c2.2,0,4.3-.4,6.1-1.2s3.4-2,4.6-3.5l-3.9-3.6c-1.8,2.1-4,3.1-6.6,3.1s-3-.4-4.3-1.1c-1.3-.8-2.3-1.7-3-3s-1.1-2.7-1.1-4.3.4-3,1.1-4.3c.8-1.3,1.7-2.3,3-3,1.2-.7,1.6-1.1,4.3-1.1s4.8,1,6.6,3l3.9-3.6c-1.2-1.5-2.8-2.6-4.6-3.4-1.8-.8-3.5-1.2-6.1-1.2s-5.1.6-7.2,1.7c-2.2,1.1-3.9,2.8-5.1,4.8s-1.8,4.4-1.8,6.9.6,4.9,1.8,6.9c1.3,2.1,2.9,3.7,5.1,4.8Z"/>
          <path class="cls-5" d="M538.5,536c0-2.1-.5-3.9-1.4-5.5-.9-1.6-2.1-2.8-3.7-3.6-1.6-.9-3.2-1.3-5.3-1.3s-3.9.4-5.5,1.3-2.9,2.1-3.8,3.7-1.4,3.3-1.4,5.3.5,3.7,1.4,5.3c.9,1.6,2.3,2.8,4,3.7,1.7.9,2.3,1.3,6,1.3s6.4-1,8.3-3.2l-3.1-3.4c-.7.7-1.5,1.2-2.3,1.5s-1.3.5-2.8.5-2.8-.4-3.8-1.1c-1-.8-1.6-1.8-1.9-3h15.2c0-.8,0-1.3,0-1.5ZM523.2,534.1c.2-1.3.7-2.3,1.6-3,.9-.7,2-1.1,3.3-1.1h.1c1.3,0,2.4.3,3.3,1.1.9.7,1.4,1.7,1.6,3h-9.9Z"/>
          <path class="cls-5" d="M547.3,525.8h-5.6v20h5.8v-9.9c0-1.8.4-3.1,1.3-4s2.2-1.4,3.5-1.4,2.3.4,3,1.2,1,2,1,3.6v10.6h5.8v-11.5c0-2.9-.8-5.1-2.3-6.6s-3.5-2.2-6-2.2h.2c-1.4,0-2.7.1-3.8.6-1.2.5-2.1,1.2-2.9,2v-2.4Z"/>
          <path class="cls-5" d="M578.1,530.8v-4.5h-5v-4.9h-5.8v4.9h-3.1v4.5h3.1v8.2c0,2.4.7,4.2,2,5.4s3.1,1.8,5.5,1.8,1.8,0,2.6-.3,1.5-.6,2.1-1v.2c.1,0-1.5-4.1-1.5-4.1-.7.5-1.6.7-2.4.7s-1.5-.2-1.9-.7c-.4-.5-.6-1.2-.6-2v-8.2h5Z"/>
          <path class="cls-5" d="M587.9,536.5c0-1.9.5-3.3,1.4-4.2s2.2-1.4,3.9-1.4h1.3v-5.3c-1.6,0-2.9.2-4.1.7-1.1.5-2,1.1-2.7,2.1v-2.4h-5.6v20h5.8v-9.5Z"/>
          <path class="cls-5" d="M601.3,544.9c1.7.9,2.3,1.3,6,1.3s6.4-1,8.3-3.2l-3.1-3.4c-.7.7-1.5,1.2-2.3,1.5s-1.3.5-2.8.5-2.8-.4-3.8-1.1c-1-.8-1.6-1.8-1.9-3h15.2c0-.8,0-1.3,0-1.5,0-2.1-.5-3.9-1.4-5.5-.9-1.6-2.1-2.8-3.7-3.6-1.6-.9-3.2-1.3-5.3-1.3s-3.9.4-5.5,1.3-2.9,2.1-3.8,3.7-1.4,3.3-1.4,5.3.5,3.7,1.4,5.3c.9,1.6,2.3,2.8,4,3.7ZM603.3,531.1c.9-.7,2-1.1,3.3-1.1h.1c1.3,0,2.4.3,3.3,1.1.9.7,1.4,1.7,1.6,3h-9.9c.2-1.3.7-2.3,1.6-3Z"/>
        </g>
      </g>
      <g id="half_circle">
        <path class="cls-3" d="M637.4,1120.7h5.5c17.7-58.5,76.5-103.4,149.4-112.2v-1.6"/>
        <path class="cls-3" d="M792.3,1006.9v113.8h-154.9"/>
        <path class="cls-5" d="M642.9,1120.7h149.4v-112.2c-72.8,8.8-131.7,53.7-149.4,112.2Z"/>
      </g>
    </g>
  </g>
</svg>